<svg width="180" height="26" viewBox="0 0 180 26" fill="none" xmlns="http://www.w3.org/2000/svg">
<g clip-path="url(#clip0)">
<path d="M52.0301 5.35742L49.6975 16.2613H49.2439L46.8465 5.35742H39.0063V20.043H43.2828V9.13912H43.7364L46.4578 20.043H52.3541L55.1403 9.13912H55.5938V20.043H59.8703V5.35742H52.0301Z" fill="#E4002B"/>
<path d="M64.73 9.13912H67.1274V16.2613H64.73V20.043H73.8012V16.2613H71.4038V9.13912H73.8012V5.35742H64.73V9.13912Z" fill="#E4002B"/>
<path d="M87.9915 12.5426L92.5271 5.35742H87.4731L85.1405 9.70637H84.6869L82.3543 5.35742H77.2355L81.7712 12.5426L77.106 20.043H82.1599L84.6221 15.631H85.0757L87.5379 20.043H92.7215L87.9915 12.5426Z" fill="#E4002B"/>
<path d="M103.218 11.093C100.95 10.5888 99.9784 10.2106 99.9784 9.39126C99.9784 8.69795 100.497 8.25676 101.793 8.25676C102.959 8.25676 103.996 8.82401 104.19 10.0846H108.661C108.402 6.61802 105.68 4.91626 101.922 4.91626C97.7754 4.91626 95.4428 6.74408 95.4428 9.45429C95.4428 11.7233 97.1922 13.236 100.821 13.9923C103.218 14.4966 104.06 14.8117 104.06 15.6941C104.06 16.5135 103.477 17.0177 102.181 17.0177C100.756 17.0177 99.784 16.2613 99.5896 15.0008H95.1836C95.4428 18.6564 98.3585 20.4842 102.246 20.4842C106.328 20.4842 108.985 18.4673 108.985 15.6941C108.855 13.4251 107.754 12.0385 103.218 11.093Z" fill="#E4002B"/>
<path d="M121.102 5.35742H113.326V20.043H117.667V15.4419H121.102C124.536 15.4419 126.804 13.4881 126.804 10.3997C126.804 7.3113 124.601 5.35742 121.102 5.35742ZM120.713 11.8493H117.667V9.01306H120.713C121.685 9.01306 122.333 9.58031 122.333 10.4627C122.333 11.2821 121.685 11.8493 120.713 11.8493Z" fill="#E4002B"/>
<path d="M137.948 20.4842C142.873 20.4842 145.983 17.4588 145.983 12.7317C145.983 8.0046 142.808 4.97925 137.948 4.97925C133.089 4.97925 129.914 8.0046 129.914 12.7317C129.914 17.4588 133.024 20.4842 137.948 20.4842ZM137.948 16.7655C135.939 16.7655 134.449 15.2529 134.449 12.7317C134.449 10.2106 135.939 8.69792 137.948 8.69792C139.957 8.69792 141.447 10.2106 141.447 12.7317C141.447 15.2529 139.957 16.7655 137.948 16.7655Z" fill="#E4002B"/>
<path d="M158.747 20.043H163.801L160.562 14.5595C162.117 13.7402 163.089 12.2905 163.089 10.2736C163.089 7.12221 160.886 5.35742 157.387 5.35742H149.611V20.043H153.953V15.2529H156.22L158.747 20.043ZM153.953 9.01306H157.063C158.035 9.01306 158.683 9.58031 158.683 10.4627C158.683 11.3451 158.035 11.9124 157.063 11.9124H154.017L153.953 9.01306Z" fill="#E4002B"/>
<path d="M166.199 5.35742V9.13912H170.929V20.043H175.205V9.13912H180V5.35742H166.199Z" fill="#E4002B"/>
<path d="M8.73147 12.7317L7.38818 13.6719V19.7831L8.73147 18.8429V12.7317Z" fill="#E4002B"/>
<path d="M5.37332 21.0353V15.082L3.3584 16.1224V22.1334L5.37332 21.0353Z" fill="#E4002B"/>
<path d="M7.38818 11.8427L8.73147 12.7316V6.62826L7.38818 5.68018V11.8427Z" fill="#E4002B"/>
<path d="M3.3584 3.32983V9.29198L5.37332 10.3812V4.41907L3.3584 3.32983Z" fill="#E4002B"/>
<path d="M2.01493 2.11657L0 0.979248V6.89332L2.01493 8.03064V2.11657Z" fill="#E4002B"/>
<path d="M26.8655 0.979248L13.2249 9.70622L9.40283 7.26267V18.1423L13.2249 15.7569L26.8655 24.4839V18.4332L17.9035 12.7316L26.8655 7.02995V0.979248Z" fill="#E4002B"/>
<path d="M2.01493 17.4326L0 18.5699V24.484L2.01493 23.3467V17.4326Z" fill="#E4002B"/>
</g>
<defs>
<clipPath id="clip0">
<rect width="180" height="25.4634" fill="white"/>
</clipPath>
</defs>
</svg>
