<svg width="28" height="24" viewBox="0 0 28 24" fill="none" xmlns="http://www.w3.org/2000/svg">
<path d="M8.97386 12L7.59326 12.96V19.2L8.97386 18.24V12Z" fill="#E4002B"/>
<path d="M5.52237 20.4786V14.4L3.45148 15.4623V21.5999L5.52237 20.4786Z" fill="#E4002B"/>
<path d="M7.59326 11.0924L8.97386 12V5.76808L7.59326 4.80002V11.0924Z" fill="#E4002B"/>
<path d="M3.45148 2.40005V8.48784L5.52237 9.60004V3.51225L3.45148 2.40005Z" fill="#E4002B"/>
<path d="M2.0709 1.16129L0 0V6.03869L2.0709 7.19998V1.16129Z" fill="#E4002B"/>
<path d="M27.612 0L13.5924 8.91087L9.66425 6.41583V17.5247L13.5924 15.0891L27.612 23.9999V17.8217L18.4011 12L27.612 6.1782V0Z" fill="#E4002B"/>
<path d="M2.0709 16.8L0 17.9613V24L2.0709 22.8387V16.8Z" fill="#E4002B"/>
</svg>
