<svg width="27" height="25" viewBox="0 0 27 25" fill="none" xmlns="http://www.w3.org/2000/svg">
<path d="M8.73147 12.7317L7.38818 13.6719V19.7831L8.73147 18.8429V12.7317Z" fill="#E4002B"/>
<path d="M5.37332 21.0353V15.082L3.3584 16.1224V22.1334L5.37332 21.0353Z" fill="#E4002B"/>
<path d="M7.38818 11.8427L8.73147 12.7316V6.62826L7.38818 5.68018V11.8427Z" fill="#E4002B"/>
<path d="M3.3584 3.32983V9.29198L5.37332 10.3812V4.41907L3.3584 3.32983Z" fill="#E4002B"/>
<path d="M2.01493 2.11657L0 0.979248V6.89332L2.01493 8.03064V2.11657Z" fill="#E4002B"/>
<path d="M26.8655 0.979248L13.2249 9.70622L9.40283 7.26267V18.1423L13.2249 15.7569L26.8655 24.4839V18.4332L17.9035 12.7316L26.8655 7.02995V0.979248Z" fill="#E4002B"/>
<path d="M2.01493 17.4326L0 18.5699V24.484L2.01493 23.3467V17.4326Z" fill="#E4002B"/>
</svg>
