<svg width="185" height="26" viewBox="0 0 185 26" fill="none" xmlns="http://www.w3.org/2000/svg">
<g clip-path="url(#clip0_305_3211)">
<path d="M53.4754 5.47028L51.078 16.6039H50.6118L48.1478 5.47028H40.0899V20.4653H44.4851V9.33166H44.9513L47.7482 20.4653H53.8084L56.6719 9.33166H57.1381V20.4653H61.5333V5.47028H53.4754Z" fill="#E4002B"/>
<path d="M66.5282 9.33166H68.9922V16.6039H66.5282V20.4653H75.8515V16.6039H73.3875V9.33166H75.8515V5.47028H66.5282V9.33166Z" fill="#E4002B"/>
<path d="M90.4357 12.8069L95.0973 5.47028H89.9029L87.5055 9.91087H87.0393L84.6419 5.47028H79.381L84.0426 12.8069L79.2478 20.4653H84.4422L86.9727 15.9604H87.4389L89.9695 20.4653H95.2971L90.4357 12.8069Z" fill="#E4002B"/>
<path d="M106.085 11.3267C103.755 10.8119 102.756 10.4257 102.756 9.58911C102.756 8.88119 103.288 8.4307 104.62 8.4307C105.819 8.4307 106.884 9.0099 107.084 10.297H111.679C111.413 6.75743 108.616 5.01981 104.753 5.01981C100.491 5.01981 98.094 6.88614 98.094 9.65347C98.094 11.9703 99.892 13.5149 103.621 14.2871C106.085 14.802 106.951 15.1238 106.951 16.0248C106.951 16.8614 106.352 17.3762 105.02 17.3762C103.555 17.3762 102.556 16.604 102.356 15.3168H97.8276C98.094 19.0495 101.091 20.9158 105.086 20.9158C109.282 20.9158 112.012 18.8564 112.012 16.0248C111.879 13.7079 110.747 12.2921 106.085 11.3267Z" fill="#E4002B"/>
<path d="M124.466 5.47028H116.474V20.4653H120.936V15.7673H124.466C127.995 15.7673 130.326 13.7723 130.326 10.6188C130.326 7.46532 128.062 5.47028 124.466 5.47028ZM124.066 12.099H120.936V9.20295H124.066C125.065 9.20295 125.731 9.78216 125.731 10.6831C125.731 11.5198 125.065 12.099 124.066 12.099Z" fill="#E4002B"/>
<path d="M141.78 20.9158C146.841 20.9158 150.038 17.8267 150.038 13C150.038 8.17328 146.775 5.08417 141.78 5.08417C136.785 5.08417 133.522 8.17328 133.522 13C133.522 17.8267 136.719 20.9158 141.78 20.9158ZM141.78 17.1188C139.716 17.1188 138.184 15.5743 138.184 13C138.184 10.4258 139.716 8.8812 141.78 8.8812C143.844 8.8812 145.376 10.4258 145.376 13C145.376 15.5743 143.844 17.1188 141.78 17.1188Z" fill="#E4002B"/>
<path d="M163.157 20.4653H168.352L165.022 14.8663C166.62 14.0297 167.619 12.5495 167.619 10.4901C167.619 7.27226 165.355 5.47028 161.759 5.47028H153.767V20.4653H158.229V15.5742H160.56L163.157 20.4653ZM158.229 9.20295H161.426C162.425 9.20295 163.091 9.78216 163.091 10.6831C163.091 11.5841 162.425 12.1633 161.426 12.1633H158.296L158.229 9.20295Z" fill="#E4002B"/>
<path d="M170.815 5.47028V9.33166H175.677V20.4653H180.072V9.33166H185V5.47028H170.815Z" fill="#E4002B"/>
<path d="M8.97386 13L7.59326 13.96V20.2L8.97386 19.24V13Z" fill="#E4002B"/>
<path d="M5.52237 21.4786V15.4L3.45148 16.4623V22.5999L5.52237 21.4786Z" fill="#E4002B"/>
<path d="M7.59326 12.0924L8.97386 13V6.76808L7.59326 5.80002V12.0924Z" fill="#E4002B"/>
<path d="M3.45148 3.40005V9.48784L5.52237 10.6V4.51225L3.45148 3.40005Z" fill="#E4002B"/>
<path d="M2.0709 2.16129L0 1V7.03869L2.0709 8.19998V2.16129Z" fill="#E4002B"/>
<path d="M27.612 1L13.5924 9.91087L9.66425 7.41583V18.5247L13.5924 16.0891L27.612 24.9999V18.8217L18.4011 13L27.612 7.1782V1Z" fill="#E4002B"/>
<path d="M2.0709 17.8L0 18.9613V25L2.0709 23.8387V17.8Z" fill="#E4002B"/>
</g>
<defs>
<clipPath id="clip0_305_3211">
<rect width="185" height="26" fill="white"/>
</clipPath>
</defs>
</svg>
