<svg width="240" height="70" viewBox="0 0 240 70" fill="none" xmlns="http://www.w3.org/2000/svg">
<rect width="240" height="70" fill="#2A2A2A"/>
<g clip-path="url(#clip0)">
<path d="M74.0301 27.3574L71.6975 38.2613H71.2439L68.8465 27.3574H61.0063V42.043H65.2828V31.1391H65.7364L68.4577 42.043H74.3541L77.1403 31.1391H77.5938V42.043H81.8703V27.3574H74.0301Z" fill="#E4002B"/>
<path d="M86.7302 31.1391H89.1276V38.2613H86.7302V42.043H95.8015V38.2613H93.4041V31.1391H95.8015V27.3574H86.7302V31.1391Z" fill="#E4002B"/>
<path d="M109.991 34.5426L114.527 27.3574H109.473L107.14 31.7064H106.687L104.354 27.3574H99.2355L103.771 34.5426L99.106 42.043H104.16L106.622 37.631H107.076L109.538 42.043H114.721L109.991 34.5426Z" fill="#E4002B"/>
<path d="M125.218 33.093C122.95 32.5888 121.978 32.2106 121.978 31.3913C121.978 30.698 122.497 30.2568 123.793 30.2568C124.959 30.2568 125.996 30.824 126.19 32.0846H130.661C130.402 28.618 127.68 26.9163 123.922 26.9163C119.775 26.9163 117.443 28.7441 117.443 31.4543C117.443 33.7233 119.192 35.236 122.821 35.9923C125.218 36.4966 126.06 36.8117 126.06 37.6941C126.06 38.5135 125.477 39.0177 124.181 39.0177C122.756 39.0177 121.784 38.2613 121.59 37.0008H117.184C117.443 40.6564 120.359 42.4842 124.246 42.4842C128.328 42.4842 130.985 40.4673 130.985 37.6941C130.855 35.4251 129.754 34.0385 125.218 33.093Z" fill="#E4002B"/>
<path d="M143.102 27.3574H135.326V42.043H139.667V37.4419H143.102C146.536 37.4419 148.804 35.4881 148.804 32.3997C148.804 29.3113 146.6 27.3574 143.102 27.3574ZM142.713 33.8493H139.667V31.0131H142.713C143.685 31.0131 144.333 31.5803 144.333 32.4627C144.333 33.2821 143.685 33.8493 142.713 33.8493Z" fill="#E4002B"/>
<path d="M159.948 42.4842C164.873 42.4842 167.983 39.4588 167.983 34.7317C167.983 30.0046 164.808 26.9792 159.948 26.9792C155.089 26.9792 151.914 30.0046 151.914 34.7317C151.914 39.4588 155.024 42.4842 159.948 42.4842ZM159.948 38.7655C157.939 38.7655 156.449 37.2529 156.449 34.7317C156.449 32.2106 157.939 30.6979 159.948 30.6979C161.957 30.6979 163.447 32.2106 163.447 34.7317C163.447 37.2529 161.957 38.7655 159.948 38.7655Z" fill="#E4002B"/>
<path d="M180.747 42.043H185.801L182.562 36.5595C184.117 35.7402 185.089 34.2905 185.089 32.2736C185.089 29.1222 182.886 27.3574 179.387 27.3574H171.611V42.043H175.953V37.2529H178.22L180.747 42.043ZM175.953 31.0131H179.063C180.035 31.0131 180.683 31.5803 180.683 32.4627C180.683 33.3451 180.035 33.9124 179.063 33.9124H176.017L175.953 31.0131Z" fill="#E4002B"/>
<path d="M188.199 27.3574V31.1391H192.929V42.043H197.205V31.1391H202V27.3574H188.199Z" fill="#E4002B"/>
<path d="M30.7312 34.7317L29.3879 35.6719V41.7831L30.7312 40.8429V34.7317Z" fill="#E4002B"/>
<path d="M27.3731 43.0354V37.0822L25.3582 38.1225V44.1335L27.3731 43.0354Z" fill="#E4002B"/>
<path d="M29.3879 33.8429L30.7312 34.7317V28.6284L29.3879 27.6803V33.8429Z" fill="#E4002B"/>
<path d="M25.3582 25.3298V31.292L27.3731 32.3812V26.4191L25.3582 25.3298Z" fill="#E4002B"/>
<path d="M24.0149 24.1167L22 22.9794V28.8934L24.0149 30.0308V24.1167Z" fill="#E4002B"/>
<path d="M48.8658 22.9794L35.2251 31.7063L31.4031 29.2628V40.1424L35.2251 37.757L48.8658 46.484V40.4333L39.9038 34.7317L48.8658 29.0301V22.9794Z" fill="#E4002B"/>
<path d="M24.0149 39.4326L22 40.5699V46.484L24.0149 45.3467V39.4326Z" fill="#E4002B"/>
</g>
<defs>
<clipPath id="clip0">
<rect width="180" height="25.4634" fill="white" transform="translate(22 22)"/>
</clipPath>
</defs>
</svg>
