<svg width="116" height="116" viewBox="0 0 116 116" fill="none" xmlns="http://www.w3.org/2000/svg">
<path d="M101.654 29.0496L99.2505 31.453C97.2868 33.4166 94.6759 34.498 91.8987 34.498C89.1215 34.498 86.5111 33.4166 84.5472 31.453C82.5836 29.4894 81.5022 26.8785 81.5022 24.1015C81.5022 21.3245 82.5836 18.7136 84.5472 16.7498L86.9506 14.3464L72.604 0L0 72.604L14.3464 86.9504L16.7498 84.547C18.7134 82.5834 21.3243 81.502 24.1015 81.502C26.8787 81.502 29.4891 82.5834 31.453 84.547C33.4166 86.5106 34.498 89.1215 34.498 91.8985C34.498 94.6755 33.4166 97.2864 31.453 99.2502L29.0496 101.654L43.396 116L116 43.396L101.654 29.0496ZM38.4273 101.418C40.2935 98.6211 41.296 95.3368 41.296 91.8985C41.296 87.3056 39.5075 82.9878 36.2597 79.7403C33.0122 76.4925 28.6941 74.704 24.1015 74.704C20.6632 74.704 17.3789 75.7065 14.5825 77.5727L9.6135 72.604L72.604 9.6135L77.5727 14.5825C75.7065 17.3789 74.704 20.6632 74.704 24.1015C74.704 28.6944 76.4925 33.0122 79.7403 36.2597C82.9878 39.5075 87.3059 41.296 91.8985 41.296C95.3368 41.296 98.6211 40.2935 101.418 38.4273L106.386 43.396L43.396 106.386L38.4273 101.418Z" fill="#E01F30"/>
<path d="M67.7324 43.4423L62.9257 48.249L67.7516 53.075L72.5583 48.2682L67.7324 43.4423Z" fill="#E01F30"/>
<path d="M58.0818 33.787L53.2751 38.5938L58.101 43.4197L62.9077 38.613L58.0818 33.787Z" fill="#E01F30"/>
<path d="M77.3852 53.0937L72.5785 57.9004L77.4044 62.7263L82.2111 57.9196L77.3852 53.0937Z" fill="#E01F30"/>
</svg>
